<mxfile host="app.diagrams.net" modified="2024-05-20T18:41:44.943Z" agent="Mozilla/5.0 (Windows NT 10.0; Win64; x64) AppleWebKit/537.36 (KHTML, like Gecko) Chrome/124.0.0.0 Safari/537.36" version="24.4.4" etag="Tu8iYbKwRWn-47IoR6nV" type="github">
  <diagram name="第 1 页" id="m5dQrLDf80J-uqpNvJqO">
    <mxGraphModel>
      <root>
        <mxCell id="0" />
        <mxCell id="1" parent="0" />
      </root>
    </mxGraphModel>
  </diagram>
</mxfile>
